{
  "asset": {
    "version": "2.0",
    "generator": "babylon.js glTF exporter for Maya 2018 v20200721.1"
  },
  "scene": 0,
  "scenes": [{ "nodes": [0] }],
  "nodes": [
    { "children": [1, 2, 3, 4, 5], "name": "Seperated_by_Mat" },
    { "mesh": 0, "name": "PhidiasWorkshop_ModelFixes:oak_mesh" },
    { "mesh": 1, "name": "PhidiasWorkshop_ModelFixes:struc_mesh" },
    { "mesh": 2, "name": "PhidiasWorkshop_ModelFixes:pillars_mesh" },
    { "mesh": 3, "name": "PhidiasWorkshop_ModelFixes:Limestone_Coquille_mesh" },
    { "mesh": 4, "name": "PhidiasWorkshop_ModelFixes:LOD0_PhidiasAtlas_mesh" }
  ],
  "meshes": [
    {
      "primitives": [
        {
          "attributes": {
            "POSITION": 1,
            "TANGENT": 2,
            "NORMAL": 3,
            "TEXCOORD_0": 4,
            "TEXCOORD_1": 5
          },
          "indices": 0,
          "material": 0
        }
      ],
      "name": "PhidiasWorkshop_ModelFixes:oak_mesh"
    },
    {
      "primitives": [
        {
          "attributes": {
            "POSITION": 7,
            "TANGENT": 8,
            "NORMAL": 9,
            "TEXCOORD_0": 10,
            "TEXCOORD_1": 11
          },
          "indices": 6,
          "material": 1
        }
      ],
      "name": "PhidiasWorkshop_ModelFixes:struc_mesh"
    },
    {
      "primitives": [
        {
          "attributes": {
            "POSITION": 13,
            "TANGENT": 14,
            "NORMAL": 15,
            "TEXCOORD_0": 16,
            "TEXCOORD_1": 17
          },
          "indices": 12,
          "material": 2
        }
      ],
      "name": "PhidiasWorkshop_ModelFixes:pillars_mesh"
    },
    {
      "primitives": [
        {
          "attributes": {
            "POSITION": 19,
            "TANGENT": 20,
            "NORMAL": 21,
            "TEXCOORD_0": 22,
            "TEXCOORD_1": 23
          },
          "indices": 18,
          "material": 3
        }
      ],
      "name": "PhidiasWorkshop_ModelFixes:Limestone_Coquille_mesh"
    },
    {
      "primitives": [
        {
          "attributes": {
            "POSITION": 25,
            "TANGENT": 26,
            "NORMAL": 27,
            "TEXCOORD_0": 28,
            "TEXCOORD_1": 29
          },
          "indices": 24,
          "material": 4
        }
      ],
      "name": "PhidiasWorkshop_ModelFixes:LOD0_PhidiasAtlas_mesh"
    }
  ],
  "accessors": [
    {
      "bufferView": 0,
      "componentType": 5123,
      "count": 10728,
      "type": "SCALAR",
      "name": "accessorIndices"
    },
    {
      "bufferView": 1,
      "componentType": 5126,
      "count": 6849,
      "max": [15.4816246, 15.89922, 6.67581224],
      "min": [-15.4816246, 6.078354, -6.67651653],
      "type": "VEC3",
      "name": "accessorPositions"
    },
    {
      "bufferView": 2,
      "componentType": 5126,
      "count": 6849,
      "type": "VEC4",
      "name": "accessorTangents"
    },
    {
      "bufferView": 1,
      "byteOffset": 82188,
      "componentType": 5126,
      "count": 6849,
      "type": "VEC3",
      "name": "accessorNormals"
    },
    {
      "bufferView": 3,
      "componentType": 5126,
      "count": 6849,
      "type": "VEC2",
      "name": "accessorUVs"
    },
    {
      "bufferView": 3,
      "byteOffset": 54792,
      "componentType": 5126,
      "count": 6849,
      "type": "VEC2",
      "name": "accessorUV2s"
    },
    {
      "bufferView": 0,
      "byteOffset": 21456,
      "componentType": 5123,
      "count": 21045,
      "type": "SCALAR",
      "name": "accessorIndices"
    },
    {
      "bufferView": 1,
      "byteOffset": 164376,
      "componentType": 5126,
      "count": 11197,
      "max": [16.7891655, 16.1587467, 7.577326],
      "min": [-16.3368111, -0.0251506362, -7.57732964],
      "type": "VEC3",
      "name": "accessorPositions"
    },
    {
      "bufferView": 2,
      "byteOffset": 109584,
      "componentType": 5126,
      "count": 11197,
      "type": "VEC4",
      "name": "accessorTangents"
    },
    {
      "bufferView": 1,
      "byteOffset": 298740,
      "componentType": 5126,
      "count": 11197,
      "type": "VEC3",
      "name": "accessorNormals"
    },
    {
      "bufferView": 3,
      "byteOffset": 109584,
      "componentType": 5126,
      "count": 11197,
      "type": "VEC2",
      "name": "accessorUVs"
    },
    {
      "bufferView": 3,
      "byteOffset": 199160,
      "componentType": 5126,
      "count": 11197,
      "type": "VEC2",
      "name": "accessorUV2s"
    },
    {
      "bufferView": 0,
      "byteOffset": 63548,
      "componentType": 5123,
      "count": 17664,
      "type": "SCALAR",
      "name": "accessorIndices"
    },
    {
      "bufferView": 1,
      "byteOffset": 433104,
      "componentType": 5126,
      "count": 6778,
      "max": [0.3778363, 9.379679, 4.04728],
      "min": [-11.3128119, 0.119246483, -4.05887747],
      "type": "VEC3",
      "name": "accessorPositions"
    },
    {
      "bufferView": 2,
      "byteOffset": 288736,
      "componentType": 5126,
      "count": 6778,
      "type": "VEC4",
      "name": "accessorTangents"
    },
    {
      "bufferView": 1,
      "byteOffset": 514440,
      "componentType": 5126,
      "count": 6778,
      "type": "VEC3",
      "name": "accessorNormals"
    },
    {
      "bufferView": 3,
      "byteOffset": 288736,
      "componentType": 5126,
      "count": 6778,
      "type": "VEC2",
      "name": "accessorUVs"
    },
    {
      "bufferView": 3,
      "byteOffset": 342960,
      "componentType": 5126,
      "count": 6778,
      "type": "VEC2",
      "name": "accessorUV2s"
    },
    {
      "bufferView": 0,
      "byteOffset": 98876,
      "componentType": 5123,
      "count": 2058,
      "type": "SCALAR",
      "name": "accessorIndices"
    },
    {
      "bufferView": 1,
      "byteOffset": 595776,
      "componentType": 5126,
      "count": 1472,
      "max": [16.63271, 10.2299986, 7.37978029],
      "min": [-16.0524654, -0.3414658, -7.63611126],
      "type": "VEC3",
      "name": "accessorPositions"
    },
    {
      "bufferView": 2,
      "byteOffset": 397184,
      "componentType": 5126,
      "count": 1472,
      "type": "VEC4",
      "name": "accessorTangents"
    },
    {
      "bufferView": 1,
      "byteOffset": 613440,
      "componentType": 5126,
      "count": 1472,
      "type": "VEC3",
      "name": "accessorNormals"
    },
    {
      "bufferView": 3,
      "byteOffset": 397184,
      "componentType": 5126,
      "count": 1472,
      "type": "VEC2",
      "name": "accessorUVs"
    },
    {
      "bufferView": 3,
      "byteOffset": 408960,
      "componentType": 5126,
      "count": 1472,
      "type": "VEC2",
      "name": "accessorUV2s"
    },
    {
      "bufferView": 0,
      "byteOffset": 102992,
      "componentType": 5123,
      "count": 111576,
      "type": "SCALAR",
      "name": "accessorIndices"
    },
    {
      "bufferView": 1,
      "byteOffset": 631104,
      "componentType": 5126,
      "count": 43957,
      "max": [16.8198662, 16.6182823, 7.81263733],
      "min": [-16.3658657, 0.1707982, -7.81814861],
      "type": "VEC3",
      "name": "accessorPositions"
    },
    {
      "bufferView": 2,
      "byteOffset": 420736,
      "componentType": 5126,
      "count": 43957,
      "type": "VEC4",
      "name": "accessorTangents"
    },
    {
      "bufferView": 1,
      "byteOffset": 1158588,
      "componentType": 5126,
      "count": 43957,
      "type": "VEC3",
      "name": "accessorNormals"
    },
    {
      "bufferView": 3,
      "byteOffset": 420736,
      "componentType": 5126,
      "count": 43957,
      "type": "VEC2",
      "name": "accessorUVs"
    },
    {
      "bufferView": 3,
      "byteOffset": 772392,
      "componentType": 5126,
      "count": 43957,
      "type": "VEC2",
      "name": "accessorUV2s"
    }
  ],
  "bufferViews": [
    { "buffer": 0, "byteLength": 326144, "name": "bufferViewScalar" },
    {
      "buffer": 0,
      "byteOffset": 326144,
      "byteLength": 1686072,
      "byteStride": 12,
      "name": "bufferViewFloatVec3"
    },
    {
      "buffer": 0,
      "byteOffset": 2012216,
      "byteLength": 1124048,
      "byteStride": 16,
      "name": "bufferViewFloatVec4"
    },
    {
      "buffer": 0,
      "byteOffset": 3136264,
      "byteLength": 1124048,
      "byteStride": 8,
      "name": "bufferViewFloatVec2"
    }
  ],
  "buffers": [{ "uri": "14-PhidiasWorkshop.bin", "byteLength": 4260312 }],
  "materials": [
    {
      "pbrMetallicRoughness": {
        "baseColorTexture": { "index": 1 },
        "metallicFactor": 0.0,
        "roughnessFactor": 0.2581639
      },
      "normalTexture": { "index": 0 },
      "emissiveFactor": [0.2, 0.2, 0.2],
      "name": "PhidiasWorkshop_ModelFixes:Oak"
    },
    {
      "pbrMetallicRoughness": {
        "baseColorFactor": [0.85, 0.8333334, 0.7875, 1.0],
        "metallicFactor": 0.0,
        "roughnessFactor": 0.2835582
      },
      "normalTexture": { "index": 2 },
      "name": "Struc"
    },
    {
      "pbrMetallicRoughness": {
        "baseColorFactor": [0.82, 0.82, 0.82, 1.0],
        "metallicFactor": 0.0,
        "roughnessFactor": 0.2835582
      },
      "normalTexture": { "index": 3 },
      "name": "Pillar"
    },
    {
      "pbrMetallicRoughness": {
        "baseColorTexture": { "index": 5 },
        "metallicFactor": 0.0,
        "roughnessFactor": 0.2835582
      },
      "normalTexture": { "index": 4 },
      "name": "Limestone_Coquille"
    },
    {
      "pbrMetallicRoughness": {
        "baseColorTexture": { "index": 7 },
        "metallicFactor": 0.0,
        "roughnessFactor": 0.2835582
      },
      "normalTexture": { "index": 6 },
      "name": "PhidiasAtlas"
    }
  ],
  "textures": [
    { "sampler": 0, "source": 0, "name": "WoodOak_normal.png" },
    { "sampler": 0, "source": 1, "name": "WoodOak_color.png" },
    { "sampler": 0, "source": 2, "name": "Stuc_normal.jpg" },
    { "sampler": 0, "source": 3, "name": "PillarGenericA_nml.jpg" },
    { "sampler": 0, "source": 4, "name": "LimeStoneCoquille_normal.jpg" },
    { "sampler": 0, "source": 5, "name": "LimeStoneCoquille_color.jpg" },
    { "sampler": 0, "source": 6, "name": "PhidiasWorkshop_Atlas_nml.jpg" },
    { "sampler": 0, "source": 7, "name": "PhidiasWorkshop_Atlas_c.jpg" }
  ],
  "images": [
    { "uri": "WoodOak_normal.png" },
    { "uri": "WoodOak_color.png" },
    { "uri": "Stuc_normal.jpg" },
    { "uri": "PillarGenericA_nml.jpg" },
    { "uri": "LimeStoneCoquille_normal.jpg" },
    { "uri": "LimeStoneCoquille_color.jpg" },
    { "uri": "PhidiasWorkshop_Atlas_nml.jpg" },
    { "uri": "PhidiasWorkshop_Atlas_c.jpg" }
  ],
  "samplers": [{ "magFilter": 9729, "minFilter": 9987 }]
}
